<svg width="174" height="46" viewBox="0 0 174 46" fill="none" xmlns="http://www.w3.org/2000/svg">
<path d="M35.968 12.992C34.3893 11.2 32.512 9.792 30.336 8.768C28.16 7.70134 25.984 7.168 23.808 7.168C21.7173 7.168 19.7547 7.57334 17.92 8.384C16.128 9.152 14.528 10.2613 13.12 11.712C11.7547 13.12 10.688 14.7627 9.92 16.64C9.152 18.5173 8.768 20.544 8.768 22.72C8.768 24.896 9.152 26.944 9.92 28.864C10.688 30.7413 11.7547 32.384 13.12 33.792C14.528 35.2 16.128 36.3093 17.92 37.12C19.7547 37.9307 21.7173 38.336 23.808 38.336C25.984 38.336 28.1387 37.8667 30.272 36.928C32.4053 35.9467 34.304 34.624 35.968 32.96L41.024 38.272C39.5307 39.808 37.8027 41.152 35.84 42.304C33.92 43.456 31.8933 44.352 29.76 44.992C27.6693 45.5893 25.536 45.888 23.36 45.888C20.0747 45.888 17.0027 45.312 14.144 44.16C11.328 42.9653 8.85333 41.3227 6.72 39.232C4.62933 37.1413 2.98667 34.688 1.792 31.872C0.597332 29.056 -1.07288e-06 26.048 -1.07288e-06 22.848C-1.07288e-06 19.6053 0.597332 16.6187 1.792 13.888C2.98667 11.1147 4.672 8.68267 6.848 6.592C9.024 4.50134 11.52 2.88 14.336 1.728C17.1947 0.576003 20.3093 3.8147e-06 23.68 3.8147e-06C25.856 3.8147e-06 27.968 0.29867 30.016 0.896004C32.1067 1.45067 34.0907 2.26133 35.968 3.328C37.8453 4.352 39.5093 5.61067 40.96 7.104L35.968 12.992ZM61.8515 0.512001H70.6195L90.0115 45.312H80.8595L65.9475 9.152L51.0995 45.312H42.1395L61.8515 0.512001ZM52.4435 28.544H79.1315V35.52H52.4435V28.544ZM114.208 0.512001C120.011 0.512001 124.491 1.856 127.648 4.544C130.805 7.232 132.384 11.008 132.384 15.872C132.384 20.9493 130.805 24.896 127.648 27.712C124.491 30.528 120.011 31.936 114.208 31.936H104.096V45.312H95.52V0.512001H114.208ZM114.208 24.832C117.408 24.832 119.883 24.1067 121.632 22.656C123.381 21.2053 124.256 19.008 124.256 16.064C124.256 13.248 123.381 11.1573 121.632 9.792C119.883 8.384 117.408 7.68 114.208 7.68H104.096V24.832H114.208ZM113.888 28.672H122.272L133.28 45.312H123.552L113.888 28.672ZM136.778 0.512001H173.322V7.744H159.37V45.312H150.73V7.744H136.778V0.512001Z" fill="white"/>
</svg>
