<svg width="120" height="32" viewBox="0 0 120 32" fill="none" xmlns="http://www.w3.org/2000/svg">
<path fill-rule="evenodd" clip-rule="evenodd" d="M4.00008 4H28.0001C28.7365 4 29.3334 4.59695 29.3334 5.33333V26.6667C29.3334 27.403 28.7365 28 28.0001 28H4.00008C3.2637 28 2.66675 27.403 2.66675 26.6667V5.33333C2.66675 4.59695 3.2637 4 4.00008 4ZM5.33341 6.66667V25.3333H26.6667V6.66667H5.33341ZM20.0001 14.6667H13.4001C13.6351 13.5129 14.4613 12.5687 15.5738 12.1827C16.6862 11.7968 17.9197 12.0264 18.8187 12.7867L21.0867 11.276C19.4963 9.54258 17.0396 8.89854 14.8033 9.62876C12.567 10.359 10.9638 12.3287 10.7027 14.6667H9.33341V17.3333H10.7041C10.966 19.6701 12.5687 21.6385 14.8039 22.3685C17.0391 23.0985 19.4947 22.4557 21.0854 20.724L18.8187 19.2133C17.9197 19.9736 16.6862 20.2032 15.5738 19.8173C14.4613 19.4313 13.6351 18.4871 13.4001 17.3333H20.0001V14.6667Z" fill="#001018"/>
<path d="M61.7 14.308C61.388 14.012 61.02 13.78 60.596 13.612C60.172 13.436 59.748 13.348 59.324 13.348C58.916 13.348 58.536 13.424 58.184 13.576C57.84 13.728 57.536 13.94 57.272 14.212C57.008 14.476 56.8 14.784 56.648 15.136C56.504 15.488 56.432 15.872 56.432 16.288C56.432 16.704 56.504 17.092 56.648 17.452C56.8 17.804 57.008 18.116 57.272 18.388C57.536 18.66 57.844 18.872 58.196 19.024C58.548 19.176 58.928 19.252 59.336 19.252C59.712 19.252 60.104 19.176 60.512 19.024C60.928 18.864 61.3 18.652 61.628 18.388L62.552 19.504C62.264 19.72 61.932 19.912 61.556 20.08C61.188 20.248 60.804 20.38 60.404 20.476C60.004 20.564 59.612 20.608 59.228 20.608C58.596 20.608 58.012 20.5 57.476 20.284C56.948 20.06 56.48 19.752 56.072 19.36C55.664 18.968 55.348 18.512 55.124 17.992C54.9 17.464 54.788 16.896 54.788 16.288C54.788 15.68 54.9 15.12 55.124 14.608C55.356 14.088 55.676 13.632 56.084 13.24C56.5 12.848 56.984 12.544 57.536 12.328C58.088 12.112 58.684 12.004 59.324 12.004C59.732 12.004 60.132 12.052 60.524 12.148C60.924 12.244 61.304 12.384 61.664 12.568C62.024 12.744 62.34 12.956 62.612 13.204L61.7 14.308ZM61.148 16.348H62.552V19.504H61.148V16.348ZM68.2289 12.004C68.8609 12.004 69.4489 12.112 69.9929 12.328C70.5369 12.544 71.0089 12.848 71.4089 13.24C71.8169 13.632 72.1329 14.088 72.3569 14.608C72.5889 15.12 72.7049 15.68 72.7049 16.288C72.7049 16.888 72.5889 17.452 72.3569 17.98C72.1329 18.508 71.8169 18.968 71.4089 19.36C71.0089 19.752 70.5369 20.06 69.9929 20.284C69.4489 20.5 68.8609 20.608 68.2289 20.608C67.5969 20.608 67.0089 20.5 66.4649 20.284C65.9289 20.06 65.4569 19.752 65.0489 19.36C64.6409 18.968 64.3209 18.512 64.0889 17.992C63.8649 17.464 63.7529 16.896 63.7529 16.288C63.7529 15.68 63.8649 15.116 64.0889 14.596C64.3209 14.076 64.6409 13.624 65.0489 13.24C65.4569 12.848 65.9289 12.544 66.4649 12.328C67.0089 12.112 67.5969 12.004 68.2289 12.004ZM68.2529 13.36C67.8609 13.36 67.4929 13.436 67.1489 13.588C66.8049 13.732 66.5009 13.94 66.2369 14.212C65.9729 14.476 65.7649 14.784 65.6129 15.136C65.4689 15.488 65.3969 15.872 65.3969 16.288C65.3969 16.704 65.4729 17.092 65.6249 17.452C65.7769 17.804 65.9849 18.116 66.2489 18.388C66.5129 18.66 66.8169 18.872 67.1609 19.024C67.5049 19.176 67.8689 19.252 68.2529 19.252C68.6369 19.252 68.9969 19.176 69.3329 19.024C69.6769 18.872 69.9769 18.66 70.2329 18.388C70.4889 18.116 70.6889 17.804 70.8329 17.452C70.9849 17.092 71.0609 16.704 71.0609 16.288C71.0609 15.872 70.9849 15.488 70.8329 15.136C70.6889 14.784 70.4889 14.476 70.2329 14.212C69.9769 13.94 69.6769 13.732 69.3329 13.588C68.9969 13.436 68.6369 13.36 68.2529 13.36ZM72.9925 12.1H79.8445V13.456H77.2285V20.5H75.6085V13.456H72.9925V12.1ZM84.3187 12.004C84.9507 12.004 85.5387 12.112 86.0827 12.328C86.6267 12.544 87.0987 12.848 87.4987 13.24C87.9067 13.632 88.2227 14.088 88.4467 14.608C88.6787 15.12 88.7947 15.68 88.7947 16.288C88.7947 16.888 88.6787 17.452 88.4467 17.98C88.2227 18.508 87.9067 18.968 87.4987 19.36C87.0987 19.752 86.6267 20.06 86.0827 20.284C85.5387 20.5 84.9507 20.608 84.3187 20.608C83.6867 20.608 83.0987 20.5 82.5547 20.284C82.0187 20.06 81.5467 19.752 81.1387 19.36C80.7307 18.968 80.4107 18.512 80.1787 17.992C79.9547 17.464 79.8427 16.896 79.8427 16.288C79.8427 15.68 79.9547 15.116 80.1787 14.596C80.4107 14.076 80.7307 13.624 81.1387 13.24C81.5467 12.848 82.0187 12.544 82.5547 12.328C83.0987 12.112 83.6867 12.004 84.3187 12.004ZM84.3427 13.36C83.9507 13.36 83.5827 13.436 83.2387 13.588C82.8947 13.732 82.5907 13.94 82.3267 14.212C82.0627 14.476 81.8547 14.784 81.7027 15.136C81.5587 15.488 81.4867 15.872 81.4867 16.288C81.4867 16.704 81.5627 17.092 81.7147 17.452C81.8667 17.804 82.0747 18.116 82.3387 18.388C82.6027 18.66 82.9067 18.872 83.2507 19.024C83.5947 19.176 83.9587 19.252 84.3427 19.252C84.7267 19.252 85.0867 19.176 85.4227 19.024C85.7667 18.872 86.0667 18.66 86.3227 18.388C86.5787 18.116 86.7787 17.804 86.9227 17.452C87.0747 17.092 87.1507 16.704 87.1507 16.288C87.1507 15.872 87.0747 15.488 86.9227 15.136C86.7787 14.784 86.5787 14.476 86.3227 14.212C86.0667 13.94 85.7667 13.732 85.4227 13.588C85.0867 13.436 84.7267 13.36 84.3427 13.36ZM89.0806 12.1H90.8086L93.2806 18.808L95.7646 12.1H97.4446L94.0726 20.5H92.4046L89.0806 12.1ZM98.5027 12.1H100.111V20.5H98.5027V12.1ZM102.171 12.1H103.695L108.447 18.556L108.027 18.7V12.1H109.587V20.5H108.051L103.323 14.056L103.743 13.912V20.5H102.171V12.1ZM114.303 12.1H115.947L119.583 20.5H117.867L115.071 13.72L112.287 20.5H110.607L114.303 12.1ZM112.539 17.356H117.543V18.664H112.539V17.356Z" fill="black"/>
</svg>
