<svg width="176" height="32" viewBox="0 0 176 32" fill="none" xmlns="http://www.w3.org/2000/svg">
<path d="M4.00342 4H28.0064C28.3601 4 28.6993 4.14049 28.9494 4.39057C29.1994 4.64065 29.3399 4.97983 29.3399 5.3335V26.6695C29.3399 27.0232 29.1994 27.3623 28.9494 27.6124C28.6993 27.8625 28.3601 28.003 28.0064 28.003H4.00342C3.64976 28.003 3.31057 27.8625 3.06049 27.6124C2.81042 27.3623 2.66992 27.0232 2.66992 26.6695V5.3335C2.66992 4.97983 2.81042 4.64065 3.06049 4.39057C3.31057 4.14049 3.64976 4 4.00342 4ZM26.6729 14.668H5.33692V25.336H26.6729V14.668ZM26.6729 12.001V6.667H5.33692V12.001H26.6729ZM18.6719 20.002H24.0059V22.669H18.6719V20.002Z" fill="#001018"/>
<path d="M55.3758 12.1H56.9838V16.408L60.7758 12.1H62.6718L56.9838 18.352V20.5H55.3758V12.1ZM59.2878 15.448L62.8758 20.5H60.9438L58.2198 16.732L59.2878 15.448ZM67.5868 12.1C68.6748 12.1 69.5148 12.352 70.1068 12.856C70.6988 13.36 70.9948 14.068 70.9948 14.98C70.9948 15.932 70.6988 16.672 70.1068 17.2C69.5148 17.728 68.6748 17.992 67.5868 17.992H65.6908V20.5H64.0828V12.1H67.5868ZM67.5868 16.66C68.1868 16.66 68.6508 16.524 68.9788 16.252C69.3068 15.98 69.4708 15.568 69.4708 15.016C69.4708 14.488 69.3068 14.096 68.9788 13.84C68.6508 13.576 68.1868 13.444 67.5868 13.444H65.6908V16.66H67.5868ZM67.5268 17.38H69.0988L71.1628 20.5H69.3388L67.5268 17.38ZM72.7547 12.1H78.9107V13.444H74.3627V15.616H78.4427V16.948H74.3627V19.156H79.0547V20.5H72.7547V12.1ZM84.1803 12.1C84.8203 12.1 85.4043 12.204 85.9323 12.412C86.4683 12.612 86.9283 12.9 87.3123 13.276C87.7043 13.652 88.0083 14.096 88.2243 14.608C88.4403 15.12 88.5483 15.684 88.5483 16.3C88.5483 16.908 88.4403 17.468 88.2243 17.98C88.0083 18.492 87.7043 18.936 87.3123 19.312C86.9203 19.688 86.4523 19.98 85.9083 20.188C85.3643 20.396 84.7723 20.5 84.1323 20.5H80.6883V12.1H84.1803ZM84.2163 19.156C84.6003 19.156 84.9563 19.088 85.2843 18.952C85.6123 18.808 85.8963 18.612 86.1363 18.364C86.3843 18.108 86.5763 17.808 86.7122 17.464C86.8563 17.112 86.9283 16.728 86.9283 16.312C86.9283 15.888 86.8563 15.504 86.7122 15.16C86.5683 14.808 86.3723 14.504 86.1243 14.248C85.8763 13.984 85.5843 13.784 85.2483 13.648C84.9123 13.512 84.5443 13.444 84.1443 13.444H82.2963V19.156H84.2163ZM89.9695 12.1H91.5775V20.5H89.9695V12.1ZM92.7015 12.1H99.5535V13.456H96.9375V20.5H95.3175V13.456H92.7015V12.1ZM100.692 12.1H102.216L106.968 18.556L106.548 18.7V12.1H108.108V20.5H106.572L101.844 14.056L102.264 13.912V20.5H100.692V12.1ZM112.825 12.1H114.469L118.105 20.5H116.389L113.593 13.72L110.809 20.5H109.129L112.825 12.1ZM111.061 17.356H116.065V18.664H111.061V17.356ZM122.372 12.1H123.98V16.408L127.772 12.1H129.668L123.98 18.352V20.5H122.372V12.1ZM126.284 15.448L129.872 20.5H127.94L125.216 16.732L126.284 15.448ZM133.731 12.1H135.375L139.011 20.5H137.295L134.499 13.72L131.715 20.5H130.035L133.731 12.1ZM131.967 17.356H136.971V18.664H131.967V17.356ZM143.548 12.1C144.636 12.1 145.476 12.352 146.068 12.856C146.66 13.36 146.956 14.068 146.956 14.98C146.956 15.932 146.66 16.672 146.068 17.2C145.476 17.728 144.636 17.992 143.548 17.992H141.652V20.5H140.044V12.1H143.548ZM143.548 16.66C144.148 16.66 144.612 16.524 144.94 16.252C145.268 15.98 145.432 15.568 145.432 15.016C145.432 14.488 145.268 14.096 144.94 13.84C144.612 13.576 144.148 13.444 143.548 13.444H141.652V16.66H143.548ZM143.488 17.38H145.06L147.124 20.5H145.3L143.488 17.38ZM147.78 12.1H154.632V13.456H152.016V20.5H150.396V13.456H147.78V12.1ZM155.77 12.1H157.378V20.5H155.77V12.1ZM165.522 14.44C165.226 14.104 164.874 13.84 164.466 13.648C164.058 13.448 163.65 13.348 163.242 13.348C162.85 13.348 162.482 13.424 162.138 13.576C161.802 13.72 161.502 13.928 161.238 14.2C160.982 14.464 160.782 14.772 160.638 15.124C160.494 15.476 160.422 15.856 160.422 16.264C160.422 16.672 160.494 17.056 160.638 17.416C160.782 17.768 160.982 18.076 161.238 18.34C161.502 18.604 161.802 18.812 162.138 18.964C162.482 19.116 162.85 19.192 163.242 19.192C163.65 19.192 164.054 19.104 164.454 18.928C164.854 18.744 165.21 18.496 165.522 18.184L166.47 19.18C166.19 19.468 165.866 19.72 165.498 19.936C165.138 20.152 164.758 20.32 164.358 20.44C163.966 20.552 163.566 20.608 163.158 20.608C162.542 20.608 161.966 20.5 161.43 20.284C160.902 20.06 160.438 19.752 160.038 19.36C159.646 18.968 159.338 18.508 159.114 17.98C158.89 17.452 158.778 16.888 158.778 16.288C158.778 15.68 158.89 15.12 159.114 14.608C159.338 14.088 159.654 13.632 160.062 13.24C160.47 12.848 160.938 12.544 161.466 12.328C162.002 12.112 162.586 12.004 163.218 12.004C163.626 12.004 164.022 12.06 164.406 12.172C164.798 12.276 165.17 12.428 165.522 12.628C165.874 12.82 166.186 13.056 166.458 13.336L165.522 14.44ZM170.375 12.1H172.019L175.655 20.5H173.939L171.143 13.72L168.359 20.5H166.679L170.375 12.1ZM168.611 17.356H173.615V18.664H168.611V17.356Z" fill="black"/>
</svg>
