<svg width="16" height="16" viewBox="0 0 16 16" fill="none" xmlns="http://www.w3.org/2000/svg">
<path fill-rule="evenodd" clip-rule="evenodd" d="M0 7.91667C0 12.289 3.54429 15.8333 7.91667 15.8333C12.289 15.8333 15.8333 12.289 15.8333 7.91667C15.8333 3.54429 12.289 0 7.91667 0C3.54429 0 0 3.54429 0 7.91667ZM14.25 7.91667C14.25 11.4145 11.4145 14.25 7.91667 14.25C4.41886 14.25 1.58333 11.4145 1.58333 7.91667C1.58333 4.41886 4.41886 1.58333 7.91667 1.58333C11.4145 1.58333 14.25 4.41886 14.25 7.91667ZM8.70833 10.2917V11.875H7.125V10.2917H8.70833ZM8.70833 8.70833V3.95833H7.125V8.70833H8.70833Z" fill="#C4C4C4"/>
</svg>
