<svg width="20" height="20" viewBox="0 0 20 20" fill="none" xmlns="http://www.w3.org/2000/svg">
<path fill-rule="evenodd" clip-rule="evenodd" d="M18.3334 7.5C18.3334 4.58333 16.2817 2.5 13.7501 2.5C12.2001 2.5 10.8334 3.33333 10.0001 4.16667C9.16675 3.33333 7.80008 2.5 6.25008 2.5C3.75008 2.5 1.66675 4.58333 1.66675 7.5C1.66675 13.0007 7.22438 16.2784 9.60504 17.6825C9.74898 17.7674 9.8813 17.8454 10.0001 17.9167C10.1189 17.8454 10.2512 17.7674 10.3951 17.6825C12.7758 16.2784 18.3334 13.0007 18.3334 7.5ZM12.7951 14.0858C12.1751 14.5792 11.5126 15.04 10.7784 15.5033C10.5292 15.66 10.2826 15.8108 10.0001 15.9792C9.71758 15.8108 9.47091 15.66 9.22175 15.5025C8.48758 15.04 7.82508 14.5792 7.20425 14.0858C4.72175 12.1108 3.33341 9.95333 3.33341 7.5C3.33341 5.54667 4.63341 4.16667 6.25008 4.16667C7.14675 4.16667 8.11675 4.64167 8.82175 5.345L10.0001 6.52333L11.1784 5.345C11.8834 4.64167 12.8534 4.16667 13.7501 4.16667C15.3859 4.16667 16.6667 5.53333 16.6667 7.5C16.6667 9.9525 15.2792 12.1108 12.7951 14.0858Z" fill="#7B1111"/>
</svg>
