<svg width="100" height="125" viewBox="0 0 100 125" fill="none" xmlns="http://www.w3.org/2000/svg">
<path d="M27.3438 6.25C27.7752 6.25 28.125 5.90022 28.125 5.46875C28.125 5.03728 27.7752 4.6875 27.3438 4.6875C26.9123 4.6875 26.5625 5.03728 26.5625 5.46875C26.5625 5.90022 26.9123 6.25 27.3438 6.25Z" fill="black"/>
<path d="M97.7734 89.8438C90.8125 88.8047 85.9844 83.2578 82.5781 76.4766C82.2656 64.0625 93.1172 60.6016 94.7109 60.1562C95.6094 60.4141 96.5234 60.6719 97.4609 60.9375C97.6619 60.9883 97.8748 60.9571 98.0528 60.8509C98.2308 60.7447 98.3594 60.5721 98.4101 60.3711C98.4609 60.1701 98.4297 59.9572 98.3235 59.7792C98.2173 59.6012 98.0447 59.4726 97.8437 59.4219C96.9166 59.1875 96.0078 58.9427 95.1172 58.6875C91.2109 55.0234 93.8906 41.9609 95.3828 36.8125L98.0859 35.0234C98.1734 34.9678 98.249 34.8954 98.3083 34.8103C98.3675 34.7252 98.4092 34.6292 98.4309 34.5278C98.4527 34.4264 98.454 34.3217 98.4349 34.2198C98.4157 34.1179 98.3765 34.0208 98.3195 33.9342C98.2624 33.8476 98.1887 33.7733 98.1027 33.7154C98.0166 33.6576 97.9199 33.6175 97.8182 33.5975C97.7164 33.5774 97.6117 33.5778 97.5102 33.5986C97.4086 33.6195 97.3122 33.6603 97.2265 33.7188L94.5859 35.4609C82.8672 32.1875 77.039 21.9766 76.2656 20.5312C76.5625 14.6484 76.8672 8.70313 77.1406 3.55469C77.152 3.34749 77.0806 3.14425 76.9422 2.98968C76.8037 2.8351 76.6095 2.74186 76.4023 2.73047C76.1951 2.71907 75.9919 2.79045 75.8373 2.92891C75.6827 3.06736 75.5895 3.26155 75.5781 3.46875C75.3047 8.66406 74.9922 14.6641 74.6953 20.5938C74.5234 21.3359 71.7187 31.8203 52.4609 37.9531C50.6015 36.7188 48.7187 35.3906 46.875 33.9531C46.6484 32.1953 46.4844 30.4375 46.3984 28.6641L46.25 25.7187C46.0292 21.5578 44.4383 17.5866 41.7252 14.4241C39.012 11.2616 35.329 9.08534 31.25 8.23438V4.98438C31.25 4.07684 30.8895 3.20647 30.2477 2.56474C29.606 1.92302 28.7356 1.5625 27.8281 1.5625H26.8594C25.9518 1.5625 25.0815 1.92302 24.4397 2.56474C23.798 3.20647 23.4375 4.07684 23.4375 4.98438V8.23438C19.3551 9.07697 15.6679 11.251 12.9545 14.4155C10.2412 17.5799 8.65514 21.5556 8.44529 25.7187L8.29685 28.6641C7.97722 34.949 6.80774 41.1618 4.82029 47.1328L4.10154 49.2734C3.33663 49.4184 2.6534 49.8438 2.18561 50.4661C1.71783 51.0884 1.49918 51.8629 1.57248 52.638C1.64579 53.4131 2.00576 54.1329 2.58193 54.6565C3.15809 55.18 3.90895 55.4697 4.68748 55.4688H21.1562C21.2983 56.6727 21.7909 57.8084 22.5728 58.7348C23.3548 59.6612 24.3917 60.3375 25.5547 60.6797C25.8741 60.7741 26.2007 60.842 26.5312 60.8828C26.4765 63.2266 26.6015 70.0938 29.7812 74.1641C32.6719 77.8828 32.8437 85.2812 32.8203 87.5547C31.7248 87.738 30.7299 88.3043 30.0131 89.1528C29.2962 90.0013 28.904 91.0767 28.9062 92.1875V97.6562C28.9062 97.8634 28.9885 98.0622 29.1351 98.2087C29.2816 98.3552 29.4803 98.4375 29.6875 98.4375H37.5C37.7072 98.4375 37.9059 98.3552 38.0524 98.2087C38.1989 98.0622 38.2812 97.8634 38.2812 97.6562V92.1875C38.2801 91.0806 37.8873 90.0097 37.1723 89.1647C36.4574 88.3196 35.4664 87.7548 34.375 87.5703C34.4293 84.3689 34.0589 81.1744 33.2734 78.0703C41.4537 76.692 49.2699 73.6702 56.25 69.1875C63.5859 68.9922 69.0078 70.1953 72.8984 71.7109L72.6562 86.0234C72.1452 86.1268 71.66 86.3315 71.2293 86.6253C70.7986 86.9192 70.4311 87.2963 70.1484 87.7344L67.8047 86.7812L65.4609 82.5859C65.3573 82.4046 65.1859 82.2719 64.9845 82.217C64.783 82.162 64.568 82.1894 64.3867 82.293C64.2054 82.3966 64.0727 82.5679 64.0177 82.7694C63.9628 82.9709 63.9901 83.1859 64.0937 83.3672L66.539 87.8125C66.6247 87.9713 66.7628 88.0955 66.9297 88.1641L68.9531 88.9453L66.6484 88.75L62.9765 85.6875C62.8975 85.6218 62.8064 85.5724 62.7083 85.542C62.6102 85.5115 62.507 85.5007 62.4047 85.5101C62.3024 85.5196 62.203 85.5491 62.1121 85.5969C62.0212 85.6448 61.9406 85.7101 61.875 85.7891C61.8093 85.8681 61.7599 85.9592 61.7294 86.0573C61.699 86.1554 61.6882 86.2586 61.6976 86.3609C61.7071 86.4632 61.7365 86.5626 61.7844 86.6535C61.8323 86.7444 61.8975 86.825 61.9765 86.8906L65.8359 90.1172C65.9597 90.2208 66.1125 90.2836 66.2734 90.2969L69.5156 90.5781L65.9531 91.2422C65.8499 91.2614 65.7515 91.3013 65.664 91.3594L62.0156 93.75C61.9241 93.8041 61.8447 93.8762 61.7821 93.9621C61.7194 94.0479 61.675 94.1456 61.6514 94.2492C61.6278 94.3528 61.6256 94.4601 61.645 94.5646C61.6643 94.669 61.7047 94.7685 61.7637 94.8568C61.8228 94.9451 61.8993 95.0204 61.9884 95.0782C62.0776 95.136 62.1776 95.1749 62.2823 95.1927C62.3871 95.2105 62.4944 95.2068 62.5976 95.1817C62.7008 95.1566 62.7979 95.1107 62.8828 95.0469L66.414 92.7031L69.539 92.125C69.5333 92.2187 69.5333 92.3126 69.539 92.4062L66.9062 93.3438C66.7209 93.4101 66.5674 93.5441 66.4765 93.7188L64.8437 96.875C64.7965 96.9663 64.7678 97.066 64.7591 97.1684C64.7505 97.2709 64.7621 97.374 64.7933 97.4719C64.8245 97.5699 64.8746 97.6607 64.9409 97.7392C65.0072 97.8178 65.0884 97.8825 65.1797 97.9297C65.271 97.9769 65.3707 98.0056 65.4731 98.0143C65.5755 98.0229 65.6786 98.0113 65.7766 97.9802C65.8745 97.949 65.9654 97.8988 66.0439 97.8325C66.1224 97.7662 66.1872 97.6851 66.2344 97.5938L67.7031 94.7422L70.2265 93.8516C70.4664 94.0777 70.7512 94.2508 71.0625 94.3594V94.5312C71.0625 95.1528 71.3094 95.749 71.7489 96.1885C72.1885 96.6281 72.7846 96.875 73.4062 96.875C74.0278 96.875 74.624 96.6281 75.0635 96.1885C75.5031 95.749 75.75 95.1528 75.75 94.5312V94.3906C76.0612 94.282 76.3461 94.109 76.5859 93.8828L79.1094 94.7734L80.5781 97.625C80.6776 97.8177 80.8495 97.963 81.0561 98.0289C81.2627 98.0949 81.487 98.076 81.6797 97.9766C81.8724 97.8771 82.0177 97.7052 82.0836 97.4986C82.1495 97.292 82.1307 97.0677 82.0312 96.875L80.4219 93.75C80.331 93.5753 80.1775 93.4414 79.9922 93.375L77.3437 92.4688C77.3495 92.3751 77.3495 92.2812 77.3437 92.1875L80.4687 92.7656L84 95.1094C84.0849 95.1732 84.1819 95.2191 84.2852 95.2442C84.3884 95.2693 84.4957 95.273 84.6004 95.2552C84.7052 95.2374 84.8052 95.1985 84.8943 95.1407C84.9835 95.0829 85.06 95.0076 85.119 94.9193C85.1781 94.831 85.2185 94.7315 85.2378 94.6271C85.2571 94.5226 85.2549 94.4153 85.2314 94.3117C85.2078 94.2081 85.1633 94.1104 85.1007 94.0246C85.0381 93.9387 84.9586 93.8666 84.8672 93.8125L81.2031 91.375C81.1156 91.3169 81.0173 91.277 80.914 91.2578L77.3437 90.5625L80.5859 90.2812C80.7468 90.268 80.8997 90.2052 81.0234 90.1016L84.8828 86.8828C85.0423 86.7502 85.1427 86.5596 85.1617 86.3531C85.1808 86.1465 85.117 85.9408 84.9844 85.7812C84.8517 85.6217 84.6612 85.5214 84.4546 85.5023C84.248 85.4833 84.0423 85.5471 83.8828 85.6797L80.2109 88.7422L77.9062 88.9375L79.9297 88.1562C80.0966 88.0877 80.2346 87.9635 80.3203 87.8047L82.7656 83.3594C82.8169 83.2696 82.85 83.1706 82.8631 83.068C82.8761 82.9655 82.8688 82.8613 82.8416 82.7616C82.8144 82.6618 82.7678 82.5684 82.7045 82.4867C82.6412 82.4049 82.5624 82.3364 82.4726 82.2852C82.3829 82.2339 82.2839 82.2007 82.1813 82.1877C82.0787 82.1747 81.9746 82.182 81.8748 82.2092C81.7751 82.2364 81.6817 82.283 81.5999 82.3463C81.5182 82.4096 81.4497 82.4883 81.3984 82.5781L79.0547 86.7734L76.7109 87.7266C76.4293 87.2916 76.0638 86.9169 75.636 86.6245C75.2081 86.3321 74.7263 86.1278 74.2187 86.0234L74.4375 72.3672C78.7734 74.3594 80.7656 76.6094 81.1015 77.0547C84.7031 84.2891 89.8984 90.2891 97.5078 91.4219H97.6562C97.8634 91.4374 98.0683 91.37 98.2258 91.2345C98.3833 91.099 98.4805 90.9064 98.4961 90.6992C98.5116 90.492 98.4442 90.2871 98.3087 90.1296C98.1732 89.9721 97.9806 89.8749 97.7734 89.8594V89.8438ZM73.4375 95.3125C73.2303 95.3125 73.0316 95.2302 72.8851 95.0837C72.7385 94.9372 72.6562 94.7384 72.6562 94.5312H74.2187C74.2187 94.7384 74.1364 94.9372 73.9899 95.0837C73.8434 95.2302 73.6447 95.3125 73.4375 95.3125ZM75.7812 89.8438V92.1875C75.7812 92.3947 75.6989 92.5934 75.5524 92.7399C75.4059 92.8864 75.2072 92.9688 75 92.9688H71.875C71.6678 92.9688 71.4691 92.8864 71.3226 92.7399C71.176 92.5934 71.0937 92.3947 71.0937 92.1875V89.8438C71.0937 89.2222 71.3407 88.626 71.7802 88.1865C72.2197 87.7469 72.8159 87.5 73.4375 87.5C74.0591 87.5 74.6552 87.7469 75.0948 88.1865C75.5343 88.626 75.7812 89.2222 75.7812 89.8438ZM92.7031 57.9141C91.8281 57.6328 90.9844 57.3359 90.1562 57.0391C86.25 50.1562 91.0156 40.5625 91.7187 39.2266L93.414 38.1094C92.3203 42.4531 90.164 52.6406 92.7031 57.9141ZM88.0156 56.2422C87.1953 55.9219 86.4062 55.5938 85.6719 55.2656C83.5469 52.2656 83.8125 47.8203 86.4531 42.7109L89.2265 40.875C87.7656 44.3594 85.8359 50.7188 88.0547 56.25L88.0156 56.2422ZM61.7187 52.2031C61.221 49.4736 60.5424 46.7802 59.6875 44.1406L61.6172 45.1797C62.8112 47.6824 63.6752 50.3295 64.1875 53.0547C64.5112 55.6116 64.5949 58.1931 64.4375 60.7656C63.7604 61.401 63.0469 62.0495 62.2969 62.7109C62.4698 59.1978 62.276 55.6761 61.7187 52.2031ZM79.4297 52.2734C77.6484 51.3203 76.3047 50.5156 75.4609 49.9922L79.8906 47.0625C79.2968 48.732 79.1356 50.5247 79.4219 52.2734H79.4297ZM78.7031 53.6562C77.6275 54.233 76.7121 55.0679 76.039 56.0859C75.6953 54.4375 75.3984 52.9609 75.1484 51.6406C76 52.1641 77.1953 52.8594 78.6875 53.6562H78.7031ZM75.7031 61.625C75.3906 61.4922 75.0312 61.3594 74.6328 61.2266L74.664 58.5938L75.0234 58.8047C75.2318 59.7057 75.4557 60.6458 75.6953 61.625H75.7031ZM73.0781 60.7969C71.4164 60.4262 69.7181 60.2453 68.0156 60.2578H67.1015C67.8151 59.5182 68.4739 58.8021 69.0781 58.1094C70.367 57.5955 71.794 57.5431 73.1172 57.9609L73.0781 60.7969ZM65.7109 52.8047C65.3181 50.5741 64.6788 48.3941 63.8047 46.3047L65.8594 47.3125C66.0859 48.0234 66.6953 49.875 67.3281 51.625C67.797 53.4084 68.0023 55.2509 67.9375 57.0938C67.3594 57.7578 66.7187 58.4531 66.039 59.1641C66.1086 57.0388 65.9988 54.9115 65.7109 52.8047ZM68.4687 46.8203C70.4498 45.9251 72.2001 44.589 73.5859 42.9141C73.4531 45.6328 73.3515 47.7344 73.289 48.9062C72.3047 48.4922 70.625 47.8047 68.4765 46.8203H68.4687ZM72.8828 50.4062C71.8484 52.0933 70.7054 53.7113 69.4609 55.25C69.427 53.843 69.201 52.4473 68.789 51.1016C68.4219 50.1016 68.0703 49.0625 67.789 48.2344C70.1172 49.2891 71.875 50 72.8906 50.4062H72.8828ZM73.1875 52.8047L73.1328 56.3516C72.5193 56.1991 71.8899 56.1204 71.2578 56.1172C71.0859 56.1172 70.8984 56.1172 70.7187 56.1172C71.7578 54.8672 72.5703 53.7266 73.1953 52.8047H73.1875ZM73.7344 39.6797C73.4765 40.3281 71.7812 44.0156 66.539 45.9297C65.7786 45.5651 64.9818 45.1745 64.1484 44.7578C67.8293 43.1135 71.1263 40.7187 73.8281 37.7266L73.7344 39.6797ZM73.9687 35.1562C73.1406 36.1875 68.5 41.7266 62.25 43.75C61.5469 43.3802 60.8255 42.9922 60.0859 42.5859C65.3474 40.1663 70.0949 36.7581 74.0703 32.5469L73.9687 35.1562ZM65.4219 61.9453C67.9714 61.6706 70.549 61.8265 73.0469 62.4062V64.5C70.7864 63.7121 68.4094 63.3107 66.0156 63.3125C65.3359 63.3125 64.6172 63.3516 63.8906 63.4219C64.375 62.9219 64.914 62.4297 65.4219 61.9453ZM74.6015 62.875C75.1638 63.0844 75.7052 63.346 76.2187 63.6563C76.4635 64.5625 76.7239 65.4792 77 66.4062C76.2197 65.9298 75.4079 65.5069 74.5703 65.1406L74.6015 62.875ZM76.5625 58.4219C77.8125 55.3906 79.9531 54.7422 80.5781 54.6172C81.2969 54.9766 82.0625 55.3438 82.875 55.7188C80.4083 56.64 78.3597 58.4249 77.1094 60.7422C76.901 59.9505 76.7187 59.1771 76.5625 58.4219ZM83.3984 54.2422C82.664 53.9036 81.9713 53.5703 81.3203 53.2422C80.0078 49.5391 81.9922 46.0625 82.3906 45.4297L84.0234 44.3516C82.2187 48.8359 82.539 52.0859 83.375 54.2422H83.3984ZM85.1172 56.7188C85.8437 57.0312 86.6015 57.3438 87.3828 57.6484C83.5651 59.4527 80.4781 62.5066 78.6328 66.3047C78.3125 65.2578 78.0156 64.2188 77.7422 63.1797C78.2622 61.5363 79.221 60.0661 80.5152 58.9275C81.8093 57.789 83.3897 57.0253 85.0859 56.7188H85.1172ZM76.125 23.3516C78.4687 26.9062 83.8515 33.6016 92.9062 36.5781L90.8984 37.9062C81.8828 37.9688 76.664 30.875 75.8125 29.6016C75.914 27.5703 76.0234 25.4766 76.125 23.3516ZM75.6953 32.0312C77.7344 34.4844 82.0937 38.6094 88.7187 39.3438L85.7109 41.3281C84.2578 40.8984 78.3203 38.9297 75.5547 35.1953L75.6953 32.0312ZM75.4297 37.4531C78.0859 40.0938 81.9062 41.6953 84.0234 42.4375L81.5781 44.0547C77.6094 43.7266 75.6875 40.4375 75.3281 39.6797L75.4297 37.4531ZM75.1953 42.25C76.3678 43.6985 77.9453 44.7647 79.7265 45.3125L74.875 48.5234C74.9453 47.1484 75.0547 44.9766 75.1875 42.25H75.1953ZM74.4922 24.9531L74.2187 29.6875C73.2656 32.2734 64.4453 39.5469 58.3594 41.6094C56.9844 40.8281 55.5781 39.9688 54.1484 39.0625C66.5859 34.8438 72.0937 28.9062 74.4844 24.9531H74.4922ZM25 4.98438C25 4.49124 25.1959 4.0183 25.5446 3.6696C25.8933 3.3209 26.3662 3.125 26.8594 3.125H27.8281C28.3212 3.125 28.7942 3.3209 29.1429 3.6696C29.4916 4.0183 29.6875 4.49124 29.6875 4.98438V7.96094L29.2031 7.91406H28.8281C28.3359 7.8125 27.8359 7.8125 27.3437 7.8125C26.8515 7.8125 26.3594 7.8125 25.8672 7.875H25.4922L25.0078 7.92188L25 4.98438ZM6.30467 47.6562C8.33701 41.5514 9.53278 35.1994 9.85935 28.7734L10.0078 25.7812C10.2388 21.3394 12.1661 17.1556 15.3919 14.0933C18.6177 11.0309 22.8958 9.32364 27.3437 9.32364C31.7916 9.32364 36.0698 11.0309 39.2956 14.0933C42.5214 17.1556 44.4486 21.3394 44.6797 25.7812L44.8281 28.7266C45.1505 35.1683 46.3463 41.5364 48.3828 47.6562L48.914 49.2188H5.77342L6.30467 47.6562ZM4.68748 53.9062C4.27308 53.9062 3.87565 53.7416 3.58263 53.4486C3.2896 53.1556 3.12498 52.7582 3.12498 52.3438C3.12498 51.9293 3.2896 51.5319 3.58263 51.2389C3.87565 50.9459 4.27308 50.7812 4.68748 50.7812H50C50.4144 50.7812 50.8118 50.9459 51.1048 51.2389C51.3979 51.5319 51.5625 51.9293 51.5625 52.3438C51.5625 52.7582 51.3979 53.1556 51.1048 53.4486C50.8118 53.7416 50.4144 53.9062 50 53.9062H4.68748ZM26.0078 59.1797C25.1674 58.9305 24.4138 58.4507 23.8324 57.7947C23.251 57.1388 22.8652 56.333 22.7187 55.4688H31.9687C31.8223 56.333 31.4365 57.1388 30.8551 57.7947C30.2737 58.4507 29.52 58.9305 28.6797 59.1797C27.8074 59.4358 26.88 59.4358 26.0078 59.1797ZM33.5937 89.0625C34.4225 89.0625 35.2174 89.3917 35.8034 89.9778C36.3895 90.5638 36.7187 91.3587 36.7187 92.1875V96.875H30.4687V92.1875C30.4687 91.3587 30.798 90.5638 31.384 89.9778C31.9701 89.3917 32.7649 89.0625 33.5937 89.0625ZM55.4687 67.8516C48.5897 72.2698 40.8796 75.2342 32.8125 76.5625C32.3928 75.3612 31.7921 74.2309 31.0312 73.2109C28.164 69.5312 28.0547 62.9922 28.125 60.8828C28.474 60.8451 28.819 60.7771 29.1562 60.6797C30.3149 60.3336 31.3467 59.6557 32.1243 58.7296C32.9018 57.8035 33.391 56.6698 33.5312 55.4688H50C50.7717 55.4601 51.5129 55.1662 52.0809 54.6437C52.6488 54.1211 53.0033 53.4069 53.0761 52.6386C53.1489 51.8702 52.9347 51.1021 52.475 50.4823C52.0152 49.8624 51.3423 49.4346 50.5859 49.2812L49.8672 47.1406C48.6789 43.5575 47.7828 39.884 47.1875 36.1562C48.6797 37.2734 50.1875 38.3281 51.6797 39.2812C53.1993 44.3717 54.4047 49.5507 55.289 54.7891C56.5703 62.3594 55.7422 66.7188 55.4687 67.8516ZM57.289 66.6328C57.7556 62.607 57.6001 58.5333 56.8281 54.5547C56.0302 49.8575 54.9871 45.2054 53.7031 40.6172C55.039 41.4609 56.3515 42.2422 57.6094 42.9609C58.7212 46.0592 59.5732 49.2447 60.1562 52.4844C60.7541 56.313 60.9218 60.1966 60.6562 64.0625C59.6015 64.9453 58.4844 65.7969 57.2812 66.6328H57.289ZM58.5937 67.625C59.664 66.8438 60.6797 66.0625 61.6406 65.2812C65.4381 64.49 69.382 64.7906 73.0156 66.1484L72.9531 70C68.336 68.3996 63.4802 67.5965 58.5937 67.625ZM74.5078 70.6484L74.5703 66.8438C75.7261 67.3867 76.8142 68.0631 77.8125 68.8594C78.3281 70.4219 78.8906 71.9453 79.5156 73.4609C77.9479 72.3335 76.2574 71.3873 74.4765 70.6406L74.5078 70.6484ZM79.3359 68.4688C82.7969 60.5625 88.5547 58.7656 89.6328 58.5C90.4922 58.8125 91.375 59.1172 92.289 59.4141C88.7265 60.9375 82.25 64.8438 81.164 73.4375C80.4687 71.8047 79.8594 70.1328 79.3047 68.4688H79.3359Z" fill="#C08A5B"/>
</svg>
