<svg width="34" height="34" viewBox="0 0 34 34" fill="none" xmlns="http://www.w3.org/2000/svg">
<path fill-rule="evenodd" clip-rule="evenodd" d="M28.336 26.8263L23.7667 22.2581C25.1293 20.5583 25.8704 18.4441 25.8673 16.2656C25.8673 10.9655 21.5658 6.66394 16.2657 6.66394C10.9655 6.66394 6.664 10.9655 6.664 16.2656C6.664 21.5657 10.9655 25.8673 16.2657 25.8673C18.4442 25.8703 20.5584 25.1292 22.2582 23.7666L26.8264 28.3359L28.336 26.8263ZM23.7336 16.2656C23.7366 18.2077 22.9805 20.0741 21.6265 21.4665L21.4665 21.6265C20.0742 22.9805 18.2077 23.7366 16.2656 23.7336C12.139 23.7336 8.79767 20.3911 8.79767 16.2656C8.79767 12.139 12.139 8.79766 16.2656 8.79766C20.3911 8.79766 23.7336 12.139 23.7336 16.2656Z" fill="black"/>
</svg>
