<svg width="27" height="27" viewBox="0 0 27 27" fill="none" xmlns="http://www.w3.org/2000/svg">
<path fill-rule="evenodd" clip-rule="evenodd" d="M13.3333 26.6667C5.96933 26.6667 0 20.6973 0 13.3333C0 5.96933 5.96933 0 13.3333 0C20.6973 0 26.6667 5.96933 26.6667 13.3333C26.6667 20.6973 20.6973 26.6667 13.3333 26.6667ZM13.3333 24C19.2244 24 24 19.2244 24 13.3333C24 7.4423 19.2244 2.66667 13.3333 2.66667C7.4423 2.66667 2.66667 7.4423 2.66667 13.3333C2.66667 19.2244 7.4423 24 13.3333 24ZM13.3333 20C16.2789 20 18.6667 17.6122 18.6667 14.6667H8C8 17.6122 10.3878 20 13.3333 20ZM8 12C6.89543 12 6 11.1046 6 10C6 8.89543 6.89543 8 8 8C9.10457 8 10 8.89543 10 10C10 11.1046 9.10457 12 8 12ZM16.6667 10C16.6667 11.1046 17.5621 12 18.6667 12C19.7712 12 20.6667 11.1046 20.6667 10C20.6667 8.89543 19.7712 8 18.6667 8C17.5621 8 16.6667 8.89543 16.6667 10Z" fill="white"/>
</svg>
