<svg width="32" height="32" viewBox="0 0 32 32" fill="none" xmlns="http://www.w3.org/2000/svg">
<g clip-path="url(#clip0_1353_7572)">
<path d="M11.9535 24.0001C11.795 25.1125 11.2404 26.1303 10.3917 26.8667C9.54302 27.603 8.45712 28.0084 7.3335 28.0084C6.20987 28.0084 5.12397 27.603 4.27526 26.8667C3.42654 26.1303 2.872 25.1125 2.7135 24.0001H1.3335V8.00008C1.3335 7.64646 1.47397 7.30732 1.72402 7.05727C1.97407 6.80722 2.31321 6.66675 2.66683 6.66675H21.3335C21.6871 6.66675 22.0263 6.80722 22.2763 7.05727C22.5264 7.30732 22.6668 7.64646 22.6668 8.00008V10.6667H26.6668L30.6668 16.0747V24.0001H27.9535C27.795 25.1125 27.2404 26.1303 26.3917 26.8667C25.543 27.603 24.4571 28.0084 23.3335 28.0084C22.2099 28.0084 21.124 27.603 20.2753 26.8667C19.4265 26.1303 18.872 25.1125 18.7135 24.0001H11.9535ZM20.0002 9.33341H4.00016V20.0667C4.52625 19.5297 5.1743 19.1277 5.88917 18.8949C6.60403 18.6622 7.36455 18.6056 8.106 18.7299C8.84744 18.8543 9.54786 19.156 10.1476 19.6093C10.7474 20.0626 11.2288 20.6541 11.5508 21.3334H19.1162C19.3402 20.8627 19.6402 20.4347 20.0002 20.0667V9.33341ZM22.6668 17.3334H28.0002V16.9534L25.3228 13.3334H22.6668V17.3334ZM23.3335 25.3334C23.8641 25.3334 24.373 25.1226 24.7482 24.7474C25.1234 24.3722 25.3342 23.8634 25.3342 23.3327C25.3342 22.8021 25.1234 22.2933 24.7482 21.9181C24.373 21.5429 23.8641 21.3321 23.3335 21.3321C22.8029 21.3321 22.294 21.5429 21.9188 21.9181C21.5436 22.2933 21.3328 22.8021 21.3328 23.3327C21.3328 23.8634 21.5436 24.3722 21.9188 24.7474C22.294 25.1226 22.8029 25.3334 23.3335 25.3334ZM9.3335 23.3334C9.3335 23.0708 9.28176 22.8107 9.18125 22.568C9.08075 22.3254 8.93343 22.1049 8.74771 21.9192C8.56199 21.7335 8.34151 21.5862 8.09886 21.4857C7.85621 21.3851 7.59614 21.3334 7.3335 21.3334C7.07085 21.3334 6.81078 21.3851 6.56813 21.4857C6.32548 21.5862 6.105 21.7335 5.91928 21.9192C5.73356 22.1049 5.58625 22.3254 5.48574 22.568C5.38523 22.8107 5.3335 23.0708 5.3335 23.3334C5.3335 23.8638 5.54421 24.3726 5.91928 24.7476C6.29435 25.1227 6.80306 25.3334 7.3335 25.3334C7.86393 25.3334 8.37264 25.1227 8.74771 24.7476C9.12278 24.3726 9.3335 23.8638 9.3335 23.3334Z" fill="#001018"/>
</g>
<defs>
<clipPath id="clip0_1353_7572">
<rect width="32" height="32" fill="white"/>
</clipPath>
</defs>
</svg>
