<svg width="119" height="119" viewBox="0 0 119 119" fill="none" xmlns="http://www.w3.org/2000/svg">
<path d="M19.8213 113.666C19.8213 103.147 23.9998 93.0595 31.4376 85.6217C38.8754 78.184 48.9631 74.0055 59.4818 74.0055C70.0004 74.0055 80.0882 78.184 87.5259 85.6217C94.9637 93.0595 99.1422 103.147 99.1422 113.666H89.2271C89.2271 105.777 86.0932 98.2111 80.5149 92.6328C74.9366 87.0544 67.3707 83.9206 59.4818 83.9206C51.5928 83.9206 44.027 87.0544 38.4486 92.6328C32.8703 98.2111 29.7364 105.777 29.7364 113.666H19.8213ZM59.4818 69.0479C43.0475 69.0479 29.7364 55.7369 29.7364 39.3025C29.7364 22.8682 43.0475 9.55719 59.4818 9.55719C75.9161 9.55719 89.2271 22.8682 89.2271 39.3025C89.2271 55.7369 75.9161 69.0479 59.4818 69.0479ZM59.4818 59.1328C70.438 59.1328 79.312 50.2587 79.312 39.3025C79.312 28.3463 70.438 19.4723 59.4818 19.4723C48.5256 19.4723 39.6515 28.3463 39.6515 39.3025C39.6515 50.2587 48.5256 59.1328 59.4818 59.1328Z" fill="#001018"/>
</svg>
