<svg width="116" height="116" viewBox="0 0 116 116" fill="none" xmlns="http://www.w3.org/2000/svg">
<path d="M4.83325 19.3333H111.167V29H4.83325V19.3333ZM4.83325 87H111.167V96.6666H4.83325V87ZM94.8396 72.0843L93.9986 67.8793H84.5784L83.0801 72.0505L75.5304 72.065C80.3879 60.436 83.9888 51.8133 86.3378 46.2163C86.9516 44.7518 88.0439 44.0075 89.6486 44.0171C90.8763 44.0268 92.8821 44.0268 95.6661 44.0171L101.5 72.0746L94.8396 72.0891V72.0843ZM86.7003 62.118H92.7709L90.4993 51.5813L86.7003 62.118ZM38.0479 44.0123L45.6363 44.022L33.9058 72.0843L26.2208 72.0795C23.6253 62.0745 21.7161 54.6505 20.4981 49.822C20.1259 48.3381 19.3864 47.3038 17.9558 46.8156C16.6846 46.3806 14.5676 45.704 11.5999 44.7905V44.0171H23.7268C25.8244 44.0171 27.0473 45.0321 27.4436 47.1105L30.4403 63.0073L38.0479 44.0123ZM56.0618 44.022L50.0684 72.0795L42.8426 72.0698L48.8359 44.0123L56.0618 44.022ZM70.7164 43.5C72.8721 43.5 75.5981 44.167 77.1641 44.7905L75.8978 50.6098C74.4816 50.0395 72.1519 49.271 70.1944 49.3048C67.3428 49.3483 65.5834 50.5421 65.5834 51.6876C65.5834 53.5436 68.6381 54.4813 71.7894 56.5161C75.3806 58.8361 75.8494 60.9145 75.8059 63.1765C75.7576 67.8696 71.7894 72.5 63.4133 72.5C59.5901 72.442 58.2126 72.123 55.0999 71.021L56.4146 64.9503C59.5853 66.2746 60.9338 66.6951 63.6404 66.6951C66.1296 66.6951 68.2611 65.6946 68.2804 63.9498C68.2901 62.7076 67.5313 62.0938 64.7424 60.5568C61.9536 59.0247 58.0483 56.9028 58.0966 52.6301C58.1594 47.1685 63.3504 43.5 70.7116 43.5H70.7164Z" fill="#001018"/>
</svg>
